<?xml version="1.0" standalone="yes"?>

<svg version="1.1" viewBox="0.0 0.0 32.0 32.0" fill="none" stroke="none" stroke-linecap="square" stroke-miterlimit="10" xmlns="http://www.w3.org/2000/svg" xmlns:xlink="http://www.w3.org/1999/xlink"><clipPath id="p.0"><path d="m0 0l32.0 0l0 32.0l-32.0 0l0 -32.0z" clip-rule="nonzero"></path></clipPath><g clip-path="url(#p.0)"><path fill="#000000" fill-opacity="0.0" d="m0 0l32.0 0l0 32.0l-32.0 0z" fill-rule="nonzero"></path><path fill="#4a86e8" d="m1.1811029 6.1177716l25.242346 0l0 19.89752c-12.620494 0 -12.620494 7.6555576 -25.242346 3.8277798zm2.07966 0l0 -2.5795906l25.069946 0l0 20.022337c-0.95295143 0 -1.9072609 0.13868904 -1.9072609 0.13868904l0 -17.581436zm1.9547715 -2.5795906l0 -2.517181l25.287144 0l0 19.959929c-1.0859852 0 -2.1719685 0.10401535 -2.1719685 0.10401535l0 -17.546762z" fill-rule="nonzero"></path><path fill="#000000" fill-opacity="0.0" d="m1.1811029 6.1177716l25.242346 0l0 19.89752c-12.620494 0 -12.620494 7.6555576 -25.242346 3.8277798zm2.07966 0l0 -2.5795906l25.069946 0l0 20.022337c-0.95295143 0 -1.9072609 0.13868904 -1.9072609 0.13868904m-21.207914 -20.161026l0 -2.517181l25.287144 0l0 19.959929c-1.0859852 0 -2.1719685 0.10401535 -2.1719685 0.10401535" fill-rule="nonzero"></path><path fill="#000000" fill-opacity="0.0" d="m1.1811029 29.843071c12.621852 3.8277779 12.621852 -3.8277798 25.242346 -3.8277798l0 -2.316084c0 0 0.95430946 -0.13868904 1.9072609 -0.13868904l0 -2.4755745c0 0 1.0859833 -0.10401535 2.1719685 -0.10401535l0 -19.959929l-25.287144 0l0 2.517181l-1.9547715 0l0 2.5795906l-2.07966 0z" fill-rule="nonzero"></path><path stroke="#000000" stroke-width="1.0" stroke-linejoin="round" stroke-linecap="butt" d="m1.1811029 6.1177716l25.242346 0l0 19.89752c-12.620494 0 -12.620494 7.6555576 -25.242346 3.8277798zm2.07966 0l0 -2.5795906l25.069946 0l0 20.022337c-0.95295143 0 -1.9072609 0.13868904 -1.9072609 0.13868904m-21.207914 -20.161026l0 -2.517181l25.287144 0l0 19.959929c-1.0859852 0 -2.1719685 0.10401535 -2.1719685 0.10401535" fill-rule="nonzero"></path><path fill="#000000" fill-opacity="0.0" d="m6.5877557 20.56168c-0.6058717 0 -1.0970273 -0.49115562 -1.0970273 -1.0970268l0 -2.183899c0 -0.6058712 -0.4911561 -1.0970268 -1.0970278 -1.0970268c0.6058717 0 1.0970278 -0.49115658 1.0970278 -1.0970278l0 -2.183898l0 0c0 -0.6058712 0.49115562 -1.0970268 1.0970273 -1.0970268l14.383545 0c0.29094887 0 0.5699825 0.11557865 0.7757149 0.32131195c0.20573235 0.20573235 0.32131195 0.48476505 0.32131195 0.7757149l0 2.183898c0 0.6058712 0.49115562 1.0970278 1.0970268 1.0970278c-0.6058712 0 -1.0970268 0.49115562 -1.0970268 1.0970268l0 2.183899c0 0.6058712 -0.49115562 1.0970268 -1.0970268 1.0970268z" fill-rule="nonzero"></path><path fill="#000000" fill-opacity="0.0" d="m6.5877557 20.56168c-0.6058717 0 -1.0970273 -0.49115562 -1.0970273 -1.0970268l0 -2.183899c0 -0.6058712 -0.4911561 -1.0970268 -1.0970278 -1.0970268c0.6058717 0 1.0970278 -0.49115658 1.0970278 -1.0970278l0 -2.183898l0 0c0 -0.6058712 0.49115562 -1.0970268 1.0970273 -1.0970268m14.383545 0c0.29094887 0 0.5699825 0.11557865 0.7757149 0.32131195c0.20573235 0.20573235 0.32131195 0.48476505 0.32131195 0.7757149l0 2.183898c0 0.6058712 0.49115562 1.0970278 1.0970268 1.0970278c-0.6058712 0 -1.0970268 0.49115562 -1.0970268 1.0970268l0 2.183899c0 0.6058712 -0.49115562 1.0970268 -1.0970268 1.0970268" fill-rule="nonzero"></path><path stroke="#000000" stroke-width="1.0" stroke-linejoin="round" stroke-linecap="butt" d="m6.5877557 20.56168c-0.6058717 0 -1.0970273 -0.49115562 -1.0970273 -1.0970268l0 -2.183899c0 -0.6058712 -0.4911561 -1.0970268 -1.0970278 -1.0970268c0.6058717 0 1.0970278 -0.49115658 1.0970278 -1.0970278l0 -2.183898l0 0c0 -0.6058712 0.49115562 -1.0970268 1.0970273 -1.0970268m14.383545 0c0.29094887 0 0.5699825 0.11557865 0.7757149 0.32131195c0.20573235 0.20573235 0.32131195 0.48476505 0.32131195 0.7757149l0 2.183898c0 0.6058712 0.49115562 1.0970278 1.0970268 1.0970278c-0.6058712 0 -1.0970268 0.49115562 -1.0970268 1.0970268l0 2.183899c0 0.6058712 -0.49115562 1.0970268 -1.0970268 1.0970268" fill-rule="nonzero"></path></g></svg>

